# xmcd
#
# Track frame offsets:
#	150
#	18478
#	36280
#	53457
#	70345
#	85466
#	97683
#	112552
#	128938
#	142864
#	159660
#	176302
#	193469
#	210768
#	228151
#	244343
#	262185
#	276086
#	292617
#
# Disc length: 4133 seconds
# Revision: 0
# Processed by: cddbd v1.5.2PL0 Copyright (c) Steve Scherf et al.
# Submitted via: dBpowerAMP V12.0
#
DISCID=fb102313
DTITLE=Various Artist - Country Radio June 2007 
DYEAR=2007
DGENRE=Country
TTITLE0=Tim McGraw With Faith Hill - I Need You
TTITLE1=Keith Urban - I Told You So
TTITLE2=Leanne Rimes - Nothin Better To Do
TTITLE3=Aaron Prichett - The Weight
TTITLE4=Ronnie Milsap With Jypsi - You Don't Know My Love
TTITLE5=Duanne Steele - What D Y Say
TTITLE6=Steve Holy - Men Buy The Drinks Women Call The Shots
TTITLE7=Johnny Reid - Kickin Stones
TTITLE8=Codie Prevost - Next Weekend
TTITLE9=Adam Gregory - One Breath From A Heartache
TTITLE10=Trace Adkins - I Wanna Feel Something
TTITLE11=Jamie Slocum - Say Hello To Heaven
TTITLE12=Halfway To Hazard - Daisy
TTITLE13=John Mellencamp - The Americans
TTITLE14=Megan Mullins - Cryin Days
TTITLE15=Kenny Rogers Feat Don Henley - Calling Me
TTITLE16=Foxx Worthee - Tennessee Flat Top Box 
TTITLE17=Aaron Pritchett - Warm Safe Place
TTITLE18=Rodney Carrington - Show Them To Me
EXTD=
EXTT0=
EXTT1=
EXTT2=
EXTT3=
EXTT4=
EXTT5=
EXTT6=
EXTT7=
EXTT8=
EXTT9=
EXTT10=
EXTT11=
EXTT12=
EXTT13=
EXTT14=
EXTT15=
EXTT16=
EXTT17=
EXTT18=
PLAYORDER=
